<svg width="25" height="19" viewBox="0 0 25 19" fill="none" xmlns="http://www.w3.org/2000/svg">
<g clip-path="url(#clip0_2107_739)">
<path d="M12.5002 10.6875C13.2369 10.6875 13.9435 10.4373 14.4644 9.99188C14.9853 9.54648 15.278 8.94239 15.278 8.3125C15.278 7.68261 14.9853 7.07852 14.4644 6.63312C13.9435 6.18772 13.2369 5.9375 12.5002 5.9375C12.4568 5.9375 12.4186 5.94641 12.3765 5.94826C12.5104 6.26344 12.5363 6.60472 12.4513 6.93206C12.3663 7.25939 12.1738 7.55921 11.8965 7.79631C11.6192 8.03341 11.2685 8.19796 10.8857 8.27066C10.5028 8.34336 10.1037 8.32118 9.73503 8.20674C9.73503 8.24385 9.72244 8.2765 9.72244 8.3125C9.72244 8.62439 9.79429 8.93323 9.93389 9.22137C10.0735 9.50952 10.2781 9.77134 10.536 9.99188C11.057 10.4373 11.7635 10.6875 12.5002 10.6875ZM24.8492 8.9582C22.4954 5.03166 17.8357 2.375 12.5002 2.375C7.16472 2.375 2.50369 5.03352 0.151262 8.95857C0.0519747 9.1265 0.000244141 9.31202 0.000244141 9.50019C0.000244141 9.68835 0.0519747 9.87387 0.151262 10.0418C2.50499 13.9683 7.16472 16.625 12.5002 16.625C17.8357 16.625 22.4967 13.9665 24.8492 10.0414C24.9485 9.8735 25.0002 9.68798 25.0002 9.49981C25.0002 9.31165 24.9485 9.12613 24.8492 8.9582ZM12.5002 3.5625C13.599 3.5625 14.6731 3.84108 15.5867 4.36302C16.5003 4.88496 17.2124 5.6268 17.6329 6.49475C18.0534 7.3627 18.1634 8.31777 17.949 9.23918C17.7347 10.1606 17.2055 11.007 16.4286 11.6713C15.6516 12.3356 14.6617 12.788 13.5841 12.9712C12.5064 13.1545 11.3893 13.0604 10.3742 12.7009C9.35906 12.3414 8.4914 11.7326 7.88094 10.9515C7.27049 10.1703 6.94466 9.25196 6.94466 8.3125C6.94627 7.05314 7.5321 5.84576 8.57362 4.95526C9.61514 4.06476 11.0273 3.56388 12.5002 3.5625ZM12.5002 15.4375C7.8405 15.4375 3.58269 13.1623 1.38911 9.5C2.6228 7.42926 4.59574 5.74825 7.02192 4.70064C6.11611 5.70334 5.55578 6.94576 5.55578 8.3125C5.55578 9.88722 6.28742 11.3974 7.58976 12.5109C8.89209 13.6244 10.6584 14.25 12.5002 14.25C14.342 14.25 16.1083 13.6244 17.4107 12.5109C18.713 11.3974 19.4447 9.88722 19.4447 8.3125C19.4447 6.94576 18.8843 5.70334 17.9785 4.70064C20.4047 5.74825 22.3776 7.42926 23.6113 9.5C21.4182 13.1623 17.1599 15.4375 12.5002 15.4375Z" fill="#42D9C8"/>
</g>
<defs>
<clipPath id="clip0_2107_739">
<rect width="25" height="19" fill="white"/>
</clipPath>
</defs>
</svg>
