<svg width="28" height="28" viewBox="0 0 20 20" fill="none" xmlns="http://www.w3.org/2000/svg">
<path d="M2.09426 8.01399C2.0538 7.96081 2.02441 7.90005 2.00783 7.83532C1.99124 7.77058 1.98781 7.70318 1.99772 7.63709C2.00763 7.571 2.03069 7.50757 2.06553 7.45055C2.10037 7.39352 2.14629 7.34406 2.20058 7.30509C2.25486 7.26611 2.31641 7.23841 2.38158 7.22363C2.44675 7.20885 2.51422 7.20728 2.58001 7.21902C2.6458 7.23075 2.70856 7.25556 2.7646 7.29197C2.82064 7.32838 2.86881 7.37565 2.90626 7.43099C3.25426 7.91499 3.77626 8.36499 4.44226 8.74899C5.81526 9.54099 7.69226 9.99999 9.70426 9.99999C11.7163 9.99999 13.5943 9.54099 14.9673 8.74899C15.6323 8.36499 16.1543 7.91499 16.5023 7.43099C16.5796 7.32318 16.6965 7.2505 16.8274 7.22893C16.9583 7.20736 17.0925 7.23868 17.2003 7.31599C17.3081 7.3933 17.3808 7.51027 17.4023 7.64117C17.4239 7.77207 17.3926 7.90618 17.3153 8.01399C16.8783 8.62199 16.2483 9.16399 15.4673 9.61499C13.9343 10.499 11.8843 11 9.70426 11C7.52426 11 5.47426 10.5 3.94226 9.61499C3.16026 9.16399 2.53026 8.62199 2.09426 8.01499" fill="black"/>
<path d="M10.5002 11C10.5002 10.8674 10.4475 10.7402 10.3537 10.6465C10.2599 10.5527 10.1328 10.5 10.0002 10.5C9.86756 10.5 9.74038 10.5527 9.64661 10.6465C9.55284 10.7402 9.50016 10.8674 9.50016 11V13.5C9.50016 13.6326 9.55284 13.7598 9.64661 13.8536C9.74038 13.9473 9.86756 14 10.0002 14C10.1328 14 10.2599 13.9473 10.3537 13.8536C10.4475 13.7598 10.5002 13.6326 10.5002 13.5V11ZM6.01016 10.402C6.02105 10.3358 6.04516 10.2724 6.08105 10.2157C6.11694 10.159 6.16388 10.1101 6.21907 10.072C6.27426 10.0338 6.33657 10.0071 6.40229 9.9935C6.46801 9.97991 6.53579 9.97969 6.6016 9.99285C6.6674 10.006 6.72989 10.0323 6.78532 10.0701C6.84076 10.1079 6.88802 10.1565 6.92427 10.213C6.96053 10.2695 6.98505 10.3327 6.99637 10.3988C7.00769 10.465 7.00558 10.5327 6.99016 10.598L6.49016 13.098C6.46038 13.2242 6.38277 13.3338 6.27369 13.4039C6.16461 13.4739 6.03259 13.4989 5.90548 13.4734C5.77837 13.448 5.6661 13.3742 5.59235 13.2676C5.5186 13.161 5.48913 13.0299 5.51016 12.902L6.01016 10.402ZM13.9902 10.402C13.9604 10.2759 13.8828 10.1662 13.7737 10.0961C13.6646 10.0261 13.5326 10.0012 13.4055 10.0266C13.2784 10.052 13.1661 10.1258 13.0923 10.2324C13.0186 10.339 12.9891 10.4701 13.0102 10.598L13.5102 13.098C13.5399 13.2242 13.6176 13.3338 13.7266 13.4039C13.8357 13.4739 13.9677 13.4989 14.0948 13.4734C14.222 13.448 14.3342 13.3742 14.408 13.2676C14.4817 13.161 14.5112 13.0299 14.4902 12.902L13.9902 10.402ZM16.3542 8.64601C16.2603 8.55213 16.1329 8.49938 16.0002 8.49938C15.8674 8.49938 15.7401 8.55213 15.6462 8.64601C15.5523 8.7399 15.4995 8.86724 15.4995 9.00001C15.4995 9.13279 15.5523 9.26013 15.6462 9.35401L17.6462 11.354C17.7401 11.4479 17.8674 11.5006 18.0002 11.5006C18.1329 11.5006 18.2603 11.4479 18.3542 11.354C18.4481 11.2601 18.5008 11.1328 18.5008 11C18.5008 10.8672 18.4481 10.7399 18.3542 10.646L16.3542 8.64601ZM3.44816 8.66401C3.49168 8.61325 3.54494 8.57173 3.60479 8.54192C3.66463 8.5121 3.72985 8.49458 3.79658 8.49041C3.86332 8.48624 3.93021 8.4955 3.9933 8.51764C4.05639 8.53977 4.1144 8.57434 4.1639 8.61929C4.2134 8.66424 4.25338 8.71866 4.28148 8.77934C4.30958 8.84001 4.32522 8.9057 4.32748 8.97253C4.32974 9.03935 4.31858 9.10595 4.29465 9.16839C4.27072 9.23082 4.23451 9.28782 4.18816 9.33602L2.37016 11.336C2.27996 11.4298 2.15674 11.4848 2.02668 11.4892C1.89662 11.4936 1.76997 11.4471 1.67363 11.3596C1.57729 11.2721 1.51886 11.1505 1.51074 11.0206C1.50262 10.8907 1.54547 10.7628 1.63016 10.664L3.44816 8.66401Z" fill="black"/>
</svg>
