<svg width="38" height="33" viewBox="0 0 38 33" fill="none" xmlns="http://www.w3.org/2000/svg">
<path d="M37.4279 14.5042H24.0656V20.3542H28.034L37.4279 14.5042Z" fill="#42D9C8"/>
<path fill-rule="evenodd" clip-rule="evenodd" d="M17.7431 32.9092C12.2726 32.9092 7.99789 31.5442 4.91889 28.8142C1.86977 26.0542 0.345215 21.9742 0.345215 16.5742C0.345215 11.2042 1.89967 7.15422 5.00857 4.42424C8.14737 1.66422 12.6912 0.284241 18.6399 0.284241H35.6791V6.13424H19.1332C15.2171 6.13424 12.3175 6.95921 10.4342 8.60924C8.58081 10.2592 7.65413 12.9142 7.65413 16.5742C7.65413 20.0542 8.47621 22.6342 10.1203 24.3142C11.7644 25.9642 14.1709 26.8642 17.3396 27.0142L24.0656 27.0592H30.2535V20.3542H28.034L37.4279 14.5042V32.9092H17.7431Z" fill="#42D9C8"/>
<path d="M17.88 14.2105C19.1834 14.2105 20.24 13.1502 20.24 11.8421C20.24 10.5341 19.1834 9.47369 17.88 9.47369C16.5766 9.47369 15.52 10.5341 15.52 11.8421C15.52 13.1502 16.5766 14.2105 17.88 14.2105Z" fill="white"/>
<path d="M16.7001 23.8618V18.0592H18.8241V23.8618H16.7001ZM14.7531 21.9671V19.9539H20.7711V21.9671H14.7531Z" fill="white"/>
</svg>
