<svg width="176" height="176" viewBox="0 0 176 176" fill="none" xmlns="http://www.w3.org/2000/svg">
<path d="M172.047 124.437L111.959 23.1343C101.166 4.91553 74.8344 4.91553 64.0063 23.1343L3.95316 124.437C-7.08122 143 6.32503 166.512 27.9125 166.512H148.088C169.675 166.512 183.081 143 172.047 124.437ZM88 144.1C80.8844 144.1 75.1094 138.325 75.1094 131.209C75.1094 124.094 80.8844 118.319 88 118.319C95.1157 118.319 100.891 124.094 100.891 131.209C100.891 138.325 95.1157 144.1 88 144.1ZM101.234 62.0468L99.6532 99.3093C99.3782 105.737 93.9469 110.722 87.5188 110.447C81.4688 110.206 76.6219 105.359 76.3813 99.3093L74.8 62.0468C74.4219 54.7249 80.0594 48.503 87.3469 48.1249C94.6688 47.7468 100.891 53.3843 101.269 60.6718C101.269 61.153 101.269 61.5999 101.234 62.0468Z" fill="#FD4760"/>
</svg>
